#N canvas 0 27 1440 818 10;
#X text 18 0 jean - 16 steps;
#X obj 27 26 inlet;
#X obj 27 53 select 0 1 2 3 4 5 6 7 8 9 10 11 12 13 14 15;
#X msg 27 394;
#X msg 271 80;
#X msg 255 100;
#X msg 239 120;
#X msg 222 140;
#X msg 206 160;
#X msg 190 183;
#X msg 173 203;
#X msg 157 224;
#X msg 141 245;
#X msg 124 267;
#X msg 108 290;
#X msg 92 310;
#X msg 75 330;
#X msg 59 351;
#X msg 43 373;
#X obj -249 312 s OSCs;
#X text -274 140 Prefix;
#X msg -212 121 visible 2 3;
#X obj -197 638 packOSC;
#X obj -175 685 udpsend;
#X msg 59 549 connect localhost 34567;
#X obj -272 184 list split 1;
#X msg -272 207 /pyta/slide/\$1;
#X obj -272 261 list trim;
#X obj -272 236 list;
#X obj -272 158 r \$0-args;
#X obj -47 97 s \$0-args;
#X connect 1 0 2 0;
#X connect 2 0 3 0;
#X connect 2 1 18 0;
#X connect 2 2 17 0;
#X connect 2 3 16 0;
#X connect 2 4 15 0;
#X connect 2 5 14 0;
#X connect 2 6 13 0;
#X connect 2 7 12 0;
#X connect 2 8 11 0;
#X connect 2 9 10 0;
#X connect 2 10 9 0;
#X connect 2 11 8 0;
#X connect 2 12 7 0;
#X connect 2 13 6 0;
#X connect 2 14 5 0;
#X connect 2 15 4 0;
#X connect 3 0 30 0;
#X connect 4 0 30 0;
#X connect 5 0 30 0;
#X connect 6 0 30 0;
#X connect 7 0 30 0;
#X connect 8 0 30 0;
#X connect 9 0 30 0;
#X connect 10 0 30 0;
#X connect 11 0 30 0;
#X connect 12 0 30 0;
#X connect 13 0 30 0;
#X connect 14 0 30 0;
#X connect 15 0 30 0;
#X connect 16 0 30 0;
#X connect 17 0 30 0;
#X connect 18 0 30 0;
#X connect 21 0 25 0;
#X connect 22 0 23 0;
#X connect 24 0 23 0;
#X connect 25 0 26 0;
#X connect 25 1 28 1;
#X connect 26 0 28 0;
#X connect 27 0 19 0;
#X connect 28 0 27 0;
#X connect 29 0 25 0;
