#N canvas 1922 49 1596 1130 10;
#X text -226 7 jean - 16 steps;
#X obj -227 141 cnv 15 450 180 empty empty Prefix 20 12 0 14 -261682
-66577 0;
#X obj -205 274 s OSCs;
#X obj -218 186 list split 1;
#X obj -205 245 list trim;
#X obj -205 220 list;
#X obj -218 160 r \$0-args;
#X msg -127 203 /pyta/slide\$1;
#X text -140 222 If the OSC messages you want to send with this sequence
have a common part \, write it up here \, and beware of letting the
\$1 at the end of the line. If not \, let the \$1 alone.;
#X obj -228 29 cnv 15 450 100 empty empty Number_of_steps 20 12 0 14
-261234 -66577 0;
#X obj -215 52 loadbang;
#X obj -215 86 outlet;
#X msg -150 69 16;
#X text -170 88 Up here you set the number of steps you want in your
sequence.;
#X obj 242 31 cnv 15 450 400 empty empty OSC_messages_list 20 12 0
14 -260097 -66577 0;
#X obj 314 401 s \$0-args;
#X obj 255 56 r \$0-0;
#X msg 314 133;
#X msg 314 153;
#X msg 314 173;
#X msg 314 193;
#X msg 314 213;
#X msg 314 233;
#X msg 314 253;
#X msg 314 273;
#X msg 314 293;
#X msg 314 333;
#X msg 314 353;
#X msg 314 373;
#X obj 255 76 r \$0-1;
#X obj 255 96 r \$0-2;
#X obj 255 116 r \$0-3;
#X obj 255 136 r \$0-4;
#X obj 255 156 r \$0-5;
#X obj 255 176 r \$0-6;
#X obj 255 196 r \$0-7;
#X obj 255 216 r \$0-8;
#X obj 255 236 r \$0-9;
#X obj 255 256 r \$0-10;
#X obj 255 276 r \$0-11;
#X obj 255 296 r \$0-12;
#X obj 255 316 r \$0-13;
#X obj 255 336 r \$0-14;
#X obj 255 356 r \$0-15;
#X msg 314 113 /et/trois 3 3 trois;
#X msg 314 93 /et/deux 2 2 deux;
#X msg 314 73 /et/un 1 1 un;
#X msg 314 313 /et/treize 13 13 treize quatorze 14;
#X text 418 72 Message sent at step 1;
#X text 430 92 Message sent at step 2;
#X msg 445 125 /et/trois/deux/fois 3 3 trois;
#X text 450 109 2 messages sent at step 3;
#X text 352 349 No message sent at steps 14 to 16;
#X text 349 202 No message sent at steps 4 to 12;
#X obj -226 333 cnv 15 450 200 empty empty Incoming_Trigs 20 12 0 14
-233017 -66577 0;
#X obj -211 356 inlet;
#X obj -211 379 select 0 1 2 3 4 5 6 7 8 9 10 11 12 13 14 15;
#X obj -211 403 s \$0-0;
#X obj -195 424 s \$0-1;
#X obj -179 445 s \$0-2;
#X obj -163 403 s \$0-3;
#X obj -146 424 s \$0-4;
#X obj -130 445 s \$0-5;
#X obj -114 403 s \$0-6;
#X obj -97 424 s \$0-7;
#X obj -81 445 s \$0-8;
#X obj -65 403 s \$0-9;
#X obj -49 424 s \$0-10;
#X obj -32 445 s \$0-11;
#X obj -16 403 s \$0-12;
#X obj 1 424 s \$0-13;
#X obj 17 445 s \$0-14;
#X obj 33 403 s \$0-15;
#X text -203 466 If your sequence has more or less than 16 steps \,
you will have to update this part (as well as the OSC messages list)
so that if fits your needs.;
#X connect 3 0 7 0;
#X connect 3 1 5 1;
#X connect 4 0 2 0;
#X connect 5 0 4 0;
#X connect 6 0 3 0;
#X connect 7 0 5 0;
#X connect 10 0 12 0;
#X connect 12 0 11 0;
#X connect 16 0 46 0;
#X connect 17 0 15 0;
#X connect 18 0 15 0;
#X connect 19 0 15 0;
#X connect 20 0 15 0;
#X connect 21 0 15 0;
#X connect 22 0 15 0;
#X connect 23 0 15 0;
#X connect 24 0 15 0;
#X connect 25 0 15 0;
#X connect 26 0 15 0;
#X connect 27 0 15 0;
#X connect 28 0 15 0;
#X connect 29 0 45 0;
#X connect 30 0 44 0;
#X connect 30 0 50 0;
#X connect 31 0 17 0;
#X connect 32 0 18 0;
#X connect 33 0 19 0;
#X connect 34 0 20 0;
#X connect 35 0 21 0;
#X connect 36 0 22 0;
#X connect 37 0 23 0;
#X connect 38 0 24 0;
#X connect 39 0 25 0;
#X connect 40 0 47 0;
#X connect 41 0 26 0;
#X connect 42 0 27 0;
#X connect 43 0 28 0;
#X connect 44 0 15 0;
#X connect 45 0 15 0;
#X connect 46 0 15 0;
#X connect 47 0 15 0;
#X connect 50 0 15 0;
#X connect 55 0 56 0;
#X connect 56 0 57 0;
#X connect 56 1 58 0;
#X connect 56 2 59 0;
#X connect 56 3 60 0;
#X connect 56 4 61 0;
#X connect 56 5 62 0;
#X connect 56 6 63 0;
#X connect 56 7 64 0;
#X connect 56 8 65 0;
#X connect 56 9 66 0;
#X connect 56 10 67 0;
#X connect 56 11 68 0;
#X connect 56 12 69 0;
#X connect 56 13 70 0;
#X connect 56 14 71 0;
#X connect 56 15 72 0;
