#N canvas 0 27 1440 818 10;
#N canvas 0 27 1438 814 generique 0;
#X msg 102 329 /pyta/slide/load_state \$1.generique.state;
#X msg 102 106 s0.featuring;
#X msg 102 138 s1.jaquie.body;
#X msg 102 171 s2.michel.body;
#X msg 102 203 s3.michel.head;
#X msg 102 238 s5.jaquie.head;
#X msg 102 270 s7.the.nots.awful.geminos;
#X obj 102 543 s OSCs;
#X obj 102 60 bng 15 250 50 0 empty empty empty 17 7 0 10 -262144 -1
-1;
#X obj 365 125 line;
#X obj 397 17 bng 15 250 50 0 empty empty empty 17 7 0 10 -262144 -1
-1;
#X obj 420 56 t b b b;
#X obj 102 304 symbol;
#X floatatom 395 191 5 0 0 0 - - -;
#X msg 365 521 /pyta/slide/position_x 0 \$1;
#X msg 375 491 /pyta/slide/position_y 0 \$1;
#X msg 375 433 100 0;
#X msg 830 228 stop;
#X obj 767 67 bng 15 250 50 0 empty empty empty 17 7 0 10 -262144 -1
-1;
#X obj 702 272 i 1;
#X obj 732 272 i 2;
#X obj 762 272 i 3;
#X obj 792 272 i 5;
#X msg 439 283 /pyta/slide/visible 0 1;
#X msg 439 313 /pyta/slide/visible 1 1;
#X msg 439 333 /pyta/slide/visible 2 1;
#X msg 439 353 /pyta/slide/visible 3 1;
#X msg 439 373 /pyta/slide/visible 5 1;
#X msg 498 78 -1000 0;
#X obj 458 451 line;
#X obj 666 81 delay 100;
#X obj 1101 38 bng 15 250 50 0 empty empty empty 17 7 0 10 -262144
-1 -1;
#X obj 982 272 i 2;
#X obj 1012 272 i 3;
#X msg 1090 228 stop;
#X obj 1078 177 delay 250;
#X msg 439 393 /pyta/slide/visible 7 1;
#X obj 1170 191 line;
#X obj 1142 90 t b b;
#X msg 1243 158 0 0;
#X obj 1178 251 / 100;
#X msg 1051 369 /pyta/slide/alpha 7 \$1;
#X msg 1167 163 100 350;
#X msg 360 77 0 500;
#X obj 736 156 metro 20;
#X obj 996 156 metro 20;
#X msg 988 306 /pyta/slide/translate_x \$1 -10;
#X msg 738 306 /pyta/slide/translate_x \$1 -84;
#X obj 818 177 delay 200;
#X msg 639 155 200 100;
#X msg 576 146 -50 100;
#X msg 102 608 /CJ/Blue/Segment/\$1 128;
#X msg 102 638 /CC/Blue/Segment/\$1 128;
#X obj 102 575 i 1;
#X obj 62 591 i 8;
#X obj 102 685 s OSCs;
#X connect 0 0 7 0;
#X connect 1 0 12 0;
#X connect 2 0 12 0;
#X connect 3 0 12 0;
#X connect 4 0 12 0;
#X connect 5 0 12 0;
#X connect 6 0 12 0;
#X connect 8 0 1 0;
#X connect 8 0 2 0;
#X connect 8 0 3 0;
#X connect 8 0 4 0;
#X connect 8 0 5 0;
#X connect 8 0 6 0;
#X connect 8 0 53 0;
#X connect 8 0 54 0;
#X connect 9 0 14 0;
#X connect 9 0 13 0;
#X connect 10 0 11 0;
#X connect 11 0 43 0;
#X connect 11 1 23 0;
#X connect 11 1 24 0;
#X connect 11 1 25 0;
#X connect 11 1 26 0;
#X connect 11 1 27 0;
#X connect 11 1 36 0;
#X connect 11 2 28 0;
#X connect 12 0 0 0;
#X connect 14 0 7 0;
#X connect 15 0 7 0;
#X connect 16 0 29 0;
#X connect 17 0 44 0;
#X connect 18 0 30 0;
#X connect 18 0 44 0;
#X connect 18 0 48 0;
#X connect 19 0 47 0;
#X connect 20 0 47 0;
#X connect 21 0 47 0;
#X connect 22 0 47 0;
#X connect 23 0 7 0;
#X connect 24 0 7 0;
#X connect 25 0 7 0;
#X connect 26 0 7 0;
#X connect 27 0 7 0;
#X connect 28 0 9 0;
#X connect 29 0 15 0;
#X connect 30 0 50 0;
#X connect 30 0 49 0;
#X connect 31 0 35 0;
#X connect 31 0 38 0;
#X connect 31 0 45 0;
#X connect 32 0 46 0;
#X connect 33 0 46 0;
#X connect 34 0 45 0;
#X connect 35 0 34 0;
#X connect 36 0 7 0;
#X connect 37 0 40 0;
#X connect 38 0 39 0;
#X connect 38 0 42 0;
#X connect 39 0 37 0;
#X connect 40 0 41 0;
#X connect 41 0 7 0;
#X connect 42 0 37 0;
#X connect 43 0 9 0;
#X connect 43 0 16 0;
#X connect 44 0 19 0;
#X connect 44 0 20 0;
#X connect 44 0 21 0;
#X connect 44 0 22 0;
#X connect 45 0 32 0;
#X connect 45 0 33 0;
#X connect 46 0 7 0;
#X connect 47 0 7 0;
#X connect 48 0 17 0;
#X connect 49 0 29 0;
#X connect 50 0 9 0;
#X connect 51 0 55 0;
#X connect 52 0 55 0;
#X connect 53 0 51 0;
#X connect 53 0 52 0;
#X connect 54 0 52 0;
#X connect 54 0 51 0;
#X restore 272 14 pd generique;
#X obj 10 91 udpsend;
#X obj 119 44 r OSCs;
#X obj 119 74 packOSC;
#X msg 10 13 connect raspberrypi 56418;
#X msg 40 49 disconnect;
#X obj 249 106 udpsend;
#X msg 249 70 connect raspberrypi 7770;
#X connect 2 0 3 0;
#X connect 3 0 1 0;
#X connect 3 0 6 0;
#X connect 4 0 1 0;
#X connect 5 0 1 0;
#X connect 5 0 6 0;
#X connect 7 0 6 0;
