#N canvas 0 27 1438 801 10;
#X obj 292 43 pos;
#X obj 619 31 tgl 15 0 empty empty empty 17 7 0 10 -262144 -1 -1 0
1;
#X obj 619 56 pos.sequence jean;
#X obj 620 135 pos.sequence orl;
#X obj 620 108 tgl 15 0 empty empty empty 17 7 0 10 -262144 -1 -1 1
1;
#X obj 565 388 line;
#X floatatom 599 414 5 0 0 0 - - -;
#X obj 689 499 print;
#X obj 576 531 s OSCs;
#X obj 292 231 pos.OSCdest 192.168.1.82 7770;
#X obj 695 407 int;
#X msg 593 338 255 1000;
#X msg 571 442 /CJ/White/Segment/All \$1;
#X msg 489 371 0 100;
#X connect 1 0 2 0;
#X connect 4 0 3 0;
#X connect 5 0 10 0;
#X connect 6 0 12 0;
#X connect 10 0 6 0;
#X connect 11 0 5 0;
#X connect 12 0 7 0;
#X connect 12 0 8 0;
#X connect 13 0 5 0;
