#N canvas 0 27 1438 801 10;
#X text 18 0 jean - 16 steps;
#X obj 34 38 inlet;
#X obj -272 290 s OSCs;
#X text -274 140 Prefix;
#X obj -197 638 packOSC;
#X obj -175 685 udpsend;
#X msg -132 639 connect localhost 34567;
#X obj -272 184 list split 1;
#X obj -272 261 list trim;
#X obj -272 236 list;
#X obj -272 158 r \$0-args;
#X obj 644 498 s \$0-args;
#X obj 34 71 select 0 1 2 3 4 5 6 7 8 9 10 11 12 13 14 15;
#X obj 34 95 s \$0-0;
#X obj 50 116 s \$0-1;
#X obj 66 137 s \$0-2;
#X obj 82 95 s \$0-3;
#X obj 99 116 s \$0-4;
#X obj 115 137 s \$0-5;
#X obj 131 95 s \$0-6;
#X obj 148 116 s \$0-7;
#X obj 164 137 s \$0-8;
#X obj 180 95 s \$0-9;
#X obj 196 116 s \$0-10;
#X obj 213 137 s \$0-11;
#X obj 229 95 s \$0-12;
#X obj 246 116 s \$0-13;
#X obj 262 137 s \$0-14;
#X obj 278 95 s \$0-15;
#X obj 585 153 r \$0-0;
#X msg 644 450;
#X msg 644 470;
#X obj 585 173 r \$0-1;
#X obj 585 193 r \$0-2;
#X obj 585 213 r \$0-3;
#X obj 585 233 r \$0-4;
#X obj 585 253 r \$0-5;
#X obj 585 273 r \$0-6;
#X obj 585 293 r \$0-7;
#X obj 585 313 r \$0-8;
#X obj 585 333 r \$0-9;
#X obj 585 353 r \$0-10;
#X obj 585 373 r \$0-11;
#X obj 585 393 r \$0-12;
#X obj 585 413 r \$0-13;
#X obj 585 433 r \$0-14;
#X obj 585 453 r \$0-15;
#X obj -129 38 loadbang;
#X obj -129 95 outlet;
#X msg -129 64 16;
#X msg 644 170 /CJ/Blue/Segment/1 255;
#X msg 644 190 /CJ/Blue/Segment/8 255;
#X msg 644 210 /CJ/Blue/Segment/All 128;
#X msg 644 230 /CJ/Blue/Segment/All 0;
#X msg 644 250 /CJ/White/Segment/All 30;
#X msg 644 270 /CJ/White/Segment/All 60;
#X msg 644 290 /CJ/White/Segment/All 90;
#X msg 644 310 /CJ/White/Segment/All 120;
#X msg 644 330 /CJ/White/Segment/All 180;
#X msg 644 350 /CJ/White/Segment/All 255;
#X msg 644 370 /CC/White/Segment/All 255;
#X msg 644 390 /BC/White/Segment/All 255;
#X msg 644 410 /BJ/White/Segment/All 255;
#X msg 644 430 /CJ/White/Segment/All 0;
#X msg 804 430 /CC/White/Segment/All 0;
#X msg 964 430 /BJ/White/Segment/All 0;
#X msg 1124 430 /BC/White/Segment/All 0;
#X msg -272 207 \$1;
#X connect 1 0 12 0;
#X connect 4 0 5 0;
#X connect 6 0 5 0;
#X connect 7 0 67 0;
#X connect 7 1 9 1;
#X connect 8 0 2 0;
#X connect 9 0 8 0;
#X connect 10 0 7 0;
#X connect 12 0 13 0;
#X connect 12 1 14 0;
#X connect 12 2 15 0;
#X connect 12 3 16 0;
#X connect 12 4 17 0;
#X connect 12 5 18 0;
#X connect 12 6 19 0;
#X connect 12 7 20 0;
#X connect 12 8 21 0;
#X connect 12 9 22 0;
#X connect 12 10 23 0;
#X connect 12 11 24 0;
#X connect 12 12 25 0;
#X connect 12 13 26 0;
#X connect 12 14 27 0;
#X connect 12 15 28 0;
#X connect 29 0 50 0;
#X connect 30 0 11 0;
#X connect 31 0 11 0;
#X connect 32 0 51 0;
#X connect 33 0 52 0;
#X connect 34 0 53 0;
#X connect 35 0 54 0;
#X connect 36 0 55 0;
#X connect 37 0 56 0;
#X connect 38 0 57 0;
#X connect 39 0 58 0;
#X connect 40 0 59 0;
#X connect 41 0 60 0;
#X connect 42 0 61 0;
#X connect 43 0 62 0;
#X connect 44 0 63 0;
#X connect 45 0 30 0;
#X connect 45 0 64 0;
#X connect 46 0 31 0;
#X connect 46 0 65 0;
#X connect 46 0 66 0;
#X connect 47 0 49 0;
#X connect 49 0 48 0;
#X connect 50 0 11 0;
#X connect 51 0 11 0;
#X connect 52 0 11 0;
#X connect 53 0 11 0;
#X connect 54 0 11 0;
#X connect 55 0 11 0;
#X connect 56 0 11 0;
#X connect 57 0 11 0;
#X connect 58 0 11 0;
#X connect 59 0 11 0;
#X connect 60 0 11 0;
#X connect 61 0 11 0;
#X connect 62 0 11 0;
#X connect 63 0 11 0;
#X connect 64 0 11 0;
#X connect 65 0 11 0;
#X connect 66 0 11 0;
#X connect 67 0 9 0;
