#N canvas 457 69 815 633 10;
#X floatatom 323 268 5 0 0 0 - - -;
#X obj 81 130 bng 15 250 50 0 empty seqplay empty 17 7 0 10 -262144
-1 -1;
#X obj 323 227 + 1;
#X obj 258 227 f;
#X msg 258 143 stop;
#X obj 81 161 t b b;
#X floatatom 108 211 5 0 0 0 - - -;
#X obj 323 321 - 1;
#X obj 323 351 s seqout;
#X obj 258 114 bng 15 250 50 0 empty seqstop empty 17 7 0 10 -262144
-1 -1;
#X obj 480 39 r seqbpm;
#X floatatom 435 128 5 0 0 0 - - -;
#X floatatom 567 145 5 0 0 0 - - -;
#X obj 465 161 /;
#X obj 540 85 t b b;
#X obj 540 56 bng 15 250 50 0 empty empty empty 17 7 0 10 -262144 -1
-1;
#X msg 435 102 60000;
#X floatatom 465 196 5 0 0 0 - - -;
#X msg 480 128 set \$1;
#X obj 328 195 bng 15 250 50 0 seqtemoin empty empty 17 7 0 10 -262144
-1 -1;
#X obj 258 178 metro;
#X obj 351 111 f \$1;
#X obj 324 60 loadbang;
#X obj 324 85 t b b;
#X obj 351 136 s seqbpm;
#X connect 0 0 7 0;
#X connect 1 0 5 0;
#X connect 2 0 3 1;
#X connect 2 0 0 0;
#X connect 3 0 2 0;
#X connect 4 0 20 0;
#X connect 5 0 20 0;
#X connect 5 1 6 0;
#X connect 6 0 3 1;
#X connect 7 0 8 0;
#X connect 9 0 4 0;
#X connect 10 0 15 0;
#X connect 10 0 18 0;
#X connect 11 0 13 0;
#X connect 12 0 13 1;
#X connect 13 0 17 0;
#X connect 13 0 20 1;
#X connect 14 0 16 0;
#X connect 14 1 12 0;
#X connect 15 0 14 0;
#X connect 16 0 11 0;
#X connect 18 0 12 0;
#X connect 20 0 3 0;
#X connect 20 0 19 0;
#X connect 21 0 18 0;
#X connect 21 0 24 0;
#X connect 22 0 23 0;
#X connect 23 0 16 0;
#X connect 23 1 21 0;
