#N canvas 0 27 1438 814 10;
#X obj 101 219 udpsend;
#X obj 30 -24 loadbang;
#X obj 13 202 r OSCdest;
#X obj 30 62 symbol \$1;
#X obj 122 24 f \$2;
#X obj 101 79 list;
#X obj 30 7 t b b;
#X obj 101 106 list prepend;
#X msg 170 24 connect;
#X obj 101 138 list trim;
#X connect 1 0 6 0;
#X connect 2 0 0 0;
#X connect 3 0 5 0;
#X connect 4 0 5 1;
#X connect 5 0 7 0;
#X connect 6 0 3 0;
#X connect 6 1 4 0;
#X connect 6 1 8 0;
#X connect 7 0 9 0;
#X connect 8 0 7 1;
#X connect 9 0 0 0;
